<svg width="16" height="16" viewBox="0 0 16 16" fill="none" xmlns="http://www.w3.org/2000/svg">
<path fill-rule="evenodd" clip-rule="evenodd" d="M6.83417 0C6.6602 0 6.51291 0.12925 6.48914 0.302769L6.38058 1.09516L6.3801 1.09869L6.37961 1.10226L6.23692 2.14386C6.2285 2.20532 6.23637 2.26482 6.25697 2.3183C5.90567 2.42452 5.56802 2.56183 5.24728 2.72699C5.22562 2.66418 5.18588 2.60667 5.12868 2.56304L4.2939 1.9263L4.2925 1.92522L4.29111 1.92416L3.65735 1.44075C3.51868 1.33498 3.32375 1.34845 3.20073 1.47231L2.63922 2.03767L2.63728 2.03961L2.06927 2.61152L1.50583 3.17883C1.38281 3.30269 1.36943 3.49895 1.47449 3.63857L1.95566 4.27806L2.58913 5.11998C2.62167 5.16323 2.66199 5.19655 2.70645 5.21971C2.53152 5.54506 2.38611 5.8884 2.27374 6.2462C2.22839 6.23296 2.17949 6.22883 2.12927 6.2358L1.08891 6.38028L0.300705 6.48975C0.128372 6.51368 0 6.66198 0 6.83714V7.63087V8.4568V9.25053C0 9.42569 0.128372 9.57399 0.300705 9.59793L1.08891 9.70739L2.12929 9.85187C2.18422 9.8595 2.23758 9.85384 2.28642 9.83751C2.4003 10.1913 2.54657 10.5307 2.72176 10.8524C2.70439 10.8677 2.68825 10.8851 2.67368 10.9045L2.04021 11.7464L1.55904 12.3859C1.45398 12.5255 1.46736 12.7218 1.59038 12.8456L2.15382 13.4129L2.72183 13.9849L2.72372 13.9868L3.28528 14.5522C3.40829 14.676 3.60323 14.6895 3.7419 14.5837L4.37555 14.1004L4.37704 14.0992L4.37856 14.0981L5.21323 13.4614C5.25453 13.4299 5.28671 13.3912 5.30957 13.3485C5.60776 13.4976 5.92018 13.6229 6.24428 13.7217C6.23352 13.7642 6.23055 13.8096 6.23692 13.8561L6.37961 14.8977L6.3801 14.9013L6.38058 14.9048L6.48914 15.6972C6.51291 15.8708 6.6602 16 6.83417 16H7.63957H8.42574H9.23114C9.40511 16 9.5524 15.8708 9.57617 15.6972L9.68472 14.9049L9.68521 14.9013L9.6857 14.8977L9.82838 13.8561C9.83539 13.8051 9.83113 13.7553 9.81766 13.7093C10.14 13.6086 10.4506 13.4816 10.747 13.3309C10.7701 13.3806 10.8052 13.4257 10.8521 13.4614L11.687 14.0982L11.6883 14.0992L11.6895 14.1002L12.3234 14.5837C12.4621 14.6895 12.657 14.676 12.78 14.5522L13.3415 13.9869L13.3435 13.9849L13.9115 13.4129L14.4749 12.8456C14.5979 12.7218 14.6113 12.5255 14.5063 12.3859L14.0251 11.7464L13.3916 10.9045C13.3688 10.8742 13.3422 10.8488 13.313 10.8283C13.4782 10.5217 13.6171 10.1992 13.7269 9.86357C13.772 9.87667 13.8207 9.88073 13.8707 9.87379L14.9111 9.7293L15.6993 9.61984C15.8716 9.59591 16 9.44761 16 9.27245V8.47872V7.65278V6.85906C16 6.6839 15.8716 6.5356 15.6993 6.51166L14.9111 6.4022L13.8707 6.25772C13.8302 6.25209 13.7905 6.2537 13.7528 6.2615C13.6435 5.91014 13.5024 5.57266 13.3327 5.25237C13.3885 5.22953 13.4393 5.19172 13.4787 5.13935L14.1122 4.29743L14.5933 3.65793C14.6984 3.51831 14.685 3.32206 14.562 3.1982L13.9986 2.63089L13.4305 2.05898L13.4286 2.05704L12.8671 1.49168C12.7441 1.36782 12.5491 1.35435 12.4105 1.46012L11.7764 1.94375L11.7753 1.94459L11.7742 1.94545L10.9391 2.58241C10.8808 2.62695 10.8406 2.68594 10.8192 2.75027C10.4969 2.58087 10.1572 2.43972 9.80351 2.33015C9.82767 2.27368 9.83743 2.2099 9.82838 2.14386L9.6857 1.10226L9.68521 1.09869L9.68472 1.09516L9.57617 0.302769C9.5524 0.129249 9.40511 0 9.23114 0H8.42574H7.63957H6.83417ZM4.51611 8.54736H5.92236V7.95654H4.51611V7.03857H6.09814V6.44531H3.78369V10H4.51611V8.54736ZM8.21973 8.75C8.31738 8.82324 8.36621 8.92904 8.36621 9.06738C8.36621 9.19434 8.31738 9.29362 8.21973 9.36523C8.12207 9.43522 7.98616 9.47021 7.81201 9.47021C7.34326 9.47021 7.10889 9.27409 7.10889 8.88184H6.37402C6.37402 9.11133 6.43262 9.31315 6.5498 9.4873C6.66862 9.66146 6.84033 9.79899 7.06494 9.8999C7.28955 9.99919 7.53857 10.0488 7.81201 10.0488C8.20589 10.0488 8.51921 9.96175 8.75195 9.7876C8.9847 9.61182 9.10107 9.37012 9.10107 9.0625C9.10107 8.78581 9.00586 8.55469 8.81543 8.36914C8.625 8.18359 8.32146 8.02816 7.90479 7.90283C7.67854 7.83447 7.50684 7.76123 7.38965 7.68311C7.27409 7.60498 7.21631 7.50814 7.21631 7.39258C7.21631 7.26888 7.26595 7.1696 7.36523 7.09473C7.46452 7.01823 7.60368 6.97998 7.78271 6.97998C7.96826 6.97998 8.1123 7.02555 8.21484 7.1167C8.31738 7.20622 8.36865 7.33236 8.36865 7.49512H9.10107C9.10107 7.2819 9.04573 7.09147 8.93506 6.92383C8.826 6.75618 8.6722 6.62679 8.47363 6.53564C8.27507 6.44287 8.04883 6.39648 7.79492 6.39648C7.54265 6.39648 7.31477 6.4388 7.11133 6.52344C6.9095 6.60807 6.75407 6.72607 6.64502 6.87744C6.5376 7.02718 6.48389 7.19808 6.48389 7.39014C6.48389 7.7596 6.68571 8.05339 7.08936 8.27148C7.23747 8.35124 7.43848 8.43262 7.69238 8.51562C7.94629 8.59701 8.12207 8.67513 8.21973 8.75ZM9.59912 6.44531V10H10.7002C11.0111 9.99837 11.2902 9.92676 11.5376 9.78516C11.785 9.64355 11.9762 9.44417 12.1113 9.18701C12.248 8.92985 12.3164 8.63607 12.3164 8.30566V8.14209C12.3164 7.81169 12.2472 7.51709 12.1089 7.2583C11.9705 6.99788 11.7777 6.79769 11.5303 6.65771C11.2845 6.51611 11.0054 6.44531 10.6929 6.44531H9.59912ZM10.3315 9.41162V7.03857H10.6929C10.981 7.03857 11.1999 7.13216 11.3496 7.31934C11.4993 7.50488 11.5742 7.77832 11.5742 8.13965V8.32764C11.571 8.67594 11.4937 8.94369 11.3423 9.13086C11.1909 9.31803 10.972 9.41162 10.6855 9.41162H10.3315Z" fill="#5C5C5C"/>
</svg>
